<svg width="1280" height="720" xmlns="http://www.w3.org/2000/svg" xmlns:xlink="http://www.w3.org/1999/xlink" overflow="hidden"><defs><linearGradient x1="267.5" y1="88" x2="267.5" y2="191" gradientUnits="userSpaceOnUse" spreadMethod="reflect" id="fill0"><stop offset="0" stop-color="#ACDEF2"/><stop offset="0.74" stop-color="#ABC0E4"/><stop offset="0.83" stop-color="#ABC0E4"/><stop offset="1" stop-color="#C7D5ED"/></linearGradient></defs><g><rect x="0" y="0" width="1280" height="720" fill="#051426"/><path d="M10 105.167C10 95.686 17.686 88 27.1672 88L507.833 88C517.314 88 525 95.686 525 105.167L525 173.833C525 183.314 517.314 191 507.833 191L27.1672 191C17.686 191 10 183.314 10 173.833Z" fill="url(#fill0)" fill-rule="evenodd"/><path d="M6 250.001C6 222.939 27.9386 201 55.0012 201L590.999 201C618.061 201 640 222.939 640 250.001L640 445.999C640 473.061 618.061 495 590.999 495L55.0012 495C27.9386 495 6 473.061 6 445.999Z" fill="#365673" fill-rule="evenodd"/><path d="M535 155.835C535 118.371 565.371 88 602.835 88L1202.17 88C1239.63 88 1270 118.371 1270 155.835L1270 427.165C1270 464.629 1239.63 495 1202.17 495L602.835 495C565.371 495 535 464.629 535 427.165Z" fill="#365673" fill-rule="evenodd"/><path d="M8 539.334C8 520.372 23.3716 505 42.3334 505L1232.67 505C1251.63 505 1267 520.372 1267 539.334L1267 676.666C1267 695.628 1251.63 711 1232.67 711L42.3334 711C23.3716 711 8 695.628 8 676.666Z" fill="#365673" fill-rule="evenodd"/></g></svg>