<svg width="1280" height="720" xmlns="http://www.w3.org/2000/svg" xmlns:xlink="http://www.w3.org/1999/xlink" overflow="hidden"><defs><linearGradient x1="230.5" y1="91" x2="230.5" y2="605" gradientUnits="userSpaceOnUse" spreadMethod="reflect" id="fill0"><stop offset="0" stop-color="#ACDEF2"/><stop offset="0.74" stop-color="#ABC0E4"/><stop offset="0.83" stop-color="#ABC0E4"/><stop offset="1" stop-color="#C7D5ED"/></linearGradient></defs><g><rect x="0" y="0" width="1280" height="720" fill="#051426"/><path d="M73 143.501C73 114.506 96.5056 91 125.501 91L335.499 91C364.494 91 388 114.506 388 143.501L388 552.499C388 581.494 364.494 605 335.499 605L125.501 605C96.5056 605 73 581.494 73 552.499Z" fill="url(#fill0)" fill-rule="evenodd"/><path d="M601 117.002C601 61.2201 646.22 16 702.002 16L1106 16C1161.78 16 1207 61.2201 1207 117.002L1207 601.998C1207 657.78 1161.78 703 1106 703L702.002 703C646.22 703 601 657.78 601 601.998Z" fill="#365673" fill-rule="evenodd"/></g></svg>